# xmcd
#
# Track frame offsets: 
#        150
#        13162
#        27045
#        38242
#        49492
#        63885
#        76587
#        91277
#        102840
#        118070
#
# Disc length: 1706 seconds
#
# Revision: 0
# Processed by: cddbd v1.5PL3 Copyright (c) Steve Scherf et al.
# Submitted via: ExactAudioCopy v0.95a4
#
DISCID=7406a80a
DTITLE=Various Artist - Country Cowboy
DYEAR=1900
DGENRE=Country
TTITLE0=Merle Haggard - The Fightin' Side Of Me
TTITLE1=Mickey Gilley - Crazy Arms
TTITLE2=Conway Twitty - It's Only Make Believe
TTITLE3=Wynne Stewart - Another Day Another Dollar
TTITLE4=Merle Haggard - Branded Man
TTITLE5=Lee Greenwood - Touch And Go Crazy
TTITLE6=Merle Haggard - I'm A Lonesome Fugitive
TTITLE7=The Kendalls - Heaven's Just A Sin Away
TTITLE8=Ed Bruce - Mamas Don't Let Your Babies Grow Up To Be Cowboys
TTITLE9=Wynne Stewart - I'm Not The Man I Used To Be
EXTD=
EXTT0=
EXTT1=
EXTT2=
EXTT3=
EXTT4=
EXTT5=
EXTT6=
EXTT7=
EXTT8=
EXTT9=
PLAYORDER=
